# Blender 5.1.1
# www.blender.org
mtllib Human.mtl
o geometry_0
v 0.014247 0.474889 -0.080863
v -0.014918 0.474175 -0.091155
v 0.032667 0.310633 0.134524
v -0.017384 0.346324 0.122727
v -0.036688 0.393291 -0.109731
v 0.029595 0.291870 0.138772
v 0.092255 0.301533 -0.145435
v -0.015489 0.340963 -0.122286
v 0.034064 0.287134 -0.134047
v 0.032945 0.284455 -0.136862
v -0.004115 0.321866 -0.127009
v 0.013490 0.294194 -0.134128
v 0.091399 0.258868 -0.175355
v 0.076286 0.207965 -0.147758
v 0.052255 0.186823 -0.166954
v 0.083321 0.211280 -0.191608
v 0.014850 0.198748 -0.159008
v 0.031392 0.192660 -0.204899
v 0.002851 0.189944 -0.178973
v -0.009879 0.206900 -0.211414
v 0.090173 0.210889 -0.170415
v 0.053367 0.210406 -0.144764
v 0.008323 0.247099 -0.161466
v 0.077666 0.245434 -0.163031
v 0.001587 0.232455 -0.230857
v -0.029743 0.240640 -0.208789
v 0.061670 0.251217 -0.151148
v -0.022706 0.218897 -0.185016
v 0.059735 0.241708 -0.220369
v 0.103457 0.244624 -0.137758
v 0.023376 0.280970 -0.226818
v -0.020254 0.270225 -0.220639
v 0.111703 0.278440 -0.154067
v -0.025962 0.272373 -0.174209
v 0.044000 0.280818 -0.134521
v 0.070845 0.255613 -0.127838
v 0.078934 0.290372 -0.198315
v 0.029804 0.297617 -0.136116
v 0.108005 0.265546 -0.125078
v 0.042804 0.299517 -0.212646
v -0.023357 0.297538 -0.196886
v -0.049478 0.288203 -0.129874
v 0.013398 0.005550 0.150206
v -0.039493 0.001748 0.130712
v -0.019370 0.001790 0.025744
v 0.109856 0.001511 0.046715
v 0.131101 0.039925 0.116942
v 0.125289 0.039621 0.064857
v 0.121997 0.067436 0.091163
v 0.091678 0.033726 0.033844
v 0.131306 0.002112 0.108121
v 0.062052 0.001504 0.028263
v 0.096844 0.065872 0.137839
v 0.012872 0.057094 0.028151
v -0.030178 0.071090 0.033976
v -0.055411 0.002590 0.040178
v 0.096929 0.001214 0.148528
v 0.098249 0.065753 0.053934
v -0.022856 0.143944 0.015540
v 0.096309 0.036956 0.154283
v 0.053990 0.059182 0.044738
v 0.031021 0.139836 0.013190
v -0.058526 0.074175 0.054301
v -0.078965 0.027875 0.077521
v -0.073998 0.002120 0.085834
v 0.100434 0.079790 0.100388
v -0.032740 0.001353 -0.132779
v 0.020346 0.138186 -0.009375
v -0.009281 0.063605 -0.025873
v 0.121625 0.002540 -0.058020
v 0.127019 0.047728 -0.065771
v 0.131005 0.041902 -0.114558
v 0.127260 0.001480 -0.116442
v 0.084388 0.001751 -0.030700
v 0.089421 0.033926 -0.030816
v 0.088406 0.002713 -0.151370
v -0.060891 0.002464 -0.044335
v -0.022963 0.002123 -0.022047
v -0.078230 0.005578 -0.080806
v 0.112387 0.071114 -0.112294
v 0.110375 0.040705 -0.143115
v 0.031360 0.047568 -0.030147
v 0.107588 0.077886 -0.083181
v -0.062122 0.079617 -0.054871
v -0.037809 0.148484 -0.017997
v 0.060260 0.064280 -0.048226
v 0.085286 0.057746 -0.144767
v 0.090464 0.063495 -0.049999
v -0.061041 0.083000 -0.107995
v -0.068256 0.159544 -0.044709
v -0.063168 0.156229 0.038102
v 0.068265 0.150112 0.029108
v 0.063176 0.146291 -0.023125
v 0.023518 0.025603 -0.148674
v -0.058626 0.026378 -0.123008
v -0.067299 0.094815 0.087651
v 0.071246 0.077398 0.075545
v 0.071857 0.078708 -0.080057
v 0.061368 0.074785 0.106059
v 0.056775 0.072065 -0.110827
v -0.073674 0.179111 -0.091517
v -0.101325 0.180720 0.015352
v -0.076575 0.172341 0.075772
v -0.062359 0.027838 0.121144
v 0.092360 0.170530 0.058731
v -0.020133 0.185573 -0.127716
v 0.021303 0.056512 0.135653
v 0.112059 0.183481 -0.002889
v 0.095528 0.178237 -0.060615
v 0.009903 0.060758 -0.134051
v -0.042064 0.092660 0.122965
v -0.089193 0.238703 -0.110901
v -0.113491 0.201016 -0.044245
v -0.056260 0.189178 0.114670
v 0.098144 0.244659 0.111917
v 0.121050 0.213218 0.061376
v 0.108621 0.206867 -0.081053
v 0.057533 0.312046 -0.146320
v 0.046859 0.285236 -0.132855
v 0.006337 0.367530 -0.187744
v -0.024337 0.369395 -0.113471
v 0.010921 0.199559 0.133583
v 0.065994 0.316748 -0.175593
v -0.090340 0.292649 -0.113806
v -0.124611 0.215664 0.038579
v -0.109478 0.254390 0.096946
v 0.082504 0.250591 0.167452
v 0.093738 0.243674 0.140272
v 0.034556 0.249168 0.161142
v 0.043561 0.188944 0.195359
v 0.059818 0.187114 0.171266
v 0.075673 0.209516 0.150845
v -0.002277 0.193119 0.199812
v 0.054444 0.204420 0.210354
v 0.049884 0.206254 0.147500
v -0.000036 0.196666 0.173806
v -0.004857 0.231979 0.231680
v -0.023425 0.211745 0.196851
v 0.089782 0.212735 0.172208
v 0.074818 0.239416 0.214386
v 0.108400 0.253096 0.147723
v 0.110596 0.270661 0.130812
v 0.101309 0.256885 0.126605
v 0.077816 0.254981 0.127554
v -0.014132 0.253356 0.171212
v -0.031110 0.252159 0.207032
v 0.028800 0.277385 0.231621
v 0.059824 0.261287 0.135908
v -0.012443 0.279867 0.223120
v 0.106534 0.292388 0.150957
v 0.032355 0.339654 -0.124112
v -0.037696 0.376216 -0.161240
v -0.039287 0.337567 -0.147654
v -0.131784 0.284982 -0.054439
v -0.134121 0.257075 0.042094
v -0.065004 0.278201 0.130404
v 0.016628 0.292754 0.136701
v -0.002348 0.316504 0.130923
v 0.138171 0.229112 0.001909
v 0.074979 0.281909 -0.126377
v 0.031535 0.310119 -0.131784
v -0.016215 0.422083 -0.149627
v -0.028539 0.283798 0.177850
v 0.056725 0.312305 0.150514
v 0.089827 0.266045 -0.120823
v -0.138709 0.258515 -0.016848
v 0.049671 0.285485 0.136106
v 0.079843 0.280149 0.126493
v 0.041164 0.376307 -0.166567
v -0.094271 0.344798 -0.087824
v -0.086074 0.296238 0.116392
v 0.090130 0.281421 0.194617
v 0.130309 0.277532 0.070723
v 0.143259 0.277909 0.009023
v 0.132687 0.259942 -0.066238
v 0.034734 0.384275 -0.112866
v 0.040185 0.414615 -0.115162
v -0.067778 0.397392 -0.084948
v -0.021551 0.300124 0.199671
v 0.034327 0.317741 0.208674
v 0.099510 0.318578 -0.099290
v 0.032783 0.459848 -0.097518
v 0.015055 0.444523 -0.126977
v -0.042194 0.451470 -0.101972
v -0.041299 0.350327 0.155090
v 0.065140 0.318258 0.174515
v 0.032408 0.344674 0.125776
v -0.029173 0.379943 0.113712
v -0.004447 0.379527 0.182102
v 0.034623 0.380016 0.113965
v 0.094975 0.304244 0.110775
v -0.131553 0.313844 0.026699
v -0.102698 0.330743 0.088732
v -0.042217 0.418944 0.113794
v -0.019818 0.477107 -0.082868
v -0.035181 0.379158 0.165334
v 0.041596 0.409313 0.129509
v 0.129971 0.327974 0.010330
v 0.103459 0.365086 -0.054327
v -0.087177 0.443433 -0.017353
v -0.100516 0.394021 0.026406
v 0.020826 0.409783 0.158371
v 0.048599 0.412629 0.100801
v 0.062657 0.446769 0.068590
v 0.072232 0.442562 -0.056203
v -0.056424 0.474663 -0.052531
v -0.061463 0.388046 0.096834
v 0.037924 0.474764 -0.067519
v -0.024946 0.453137 0.119473
v 0.070699 0.469450 0.009096
v -0.070704 0.472271 -0.017425
v 0.059823 0.472049 -0.042002
v -0.070265 0.451651 0.058820
v 0.029893 0.461678 0.098538
v -0.070166 0.472094 0.023218
v 0.019283 0.471501 0.082169
v 0.060821 0.470435 0.042490
v -0.005941 0.474259 0.084957
v -0.056180 0.474833 0.055668
v -0.026741 0.475408 0.078099
v 0.000000 0.460000 0.000000
v 0.195374 0.609251 0.141946
v -0.074625 0.609251 0.229675
v -0.241495 0.609252 0.000000
v -0.074625 0.609251 -0.229675
v 0.195374 0.609251 -0.141946
v 0.074625 0.850749 0.229675
v -0.195374 0.850749 0.141946
v -0.195374 0.850749 -0.141946
v 0.074625 0.850749 -0.229675
v 0.241495 0.850748 0.000000
v 0.000000 1.000000 0.000000
v -0.062862 0.552470 0.193472
v -0.043863 0.500323 0.134999
v -0.020954 0.468654 0.064490
v 0.054859 0.468654 0.039857
v 0.114837 0.500323 0.083433
v 0.164578 0.552470 0.119571
v 0.143624 0.594378 0.184062
v 0.070975 0.588051 0.218433
v -0.008003 0.594378 0.233330
v 0.219437 0.594379 -0.079714
v 0.229675 0.588051 0.000000
v 0.219437 0.594379 0.079714
v 0.054859 0.468654 -0.039857
v 0.114837 0.500323 -0.083433
v 0.164578 0.552470 -0.119571
v -0.203429 0.552471 0.000000
v -0.141947 0.500324 0.000000
v -0.067810 0.468654 0.000000
v -0.130672 0.594379 0.193472
v -0.185811 0.588051 0.134999
v -0.224384 0.594379 0.064490
v -0.062862 0.552470 -0.193472
v -0.043863 0.500323 -0.134999
v -0.020954 0.468654 -0.064490
v -0.224384 0.594379 -0.064490
v -0.185811 0.588051 -0.134999
v -0.130672 0.594378 -0.193472
v -0.008003 0.594378 -0.233330
v 0.070975 0.588051 -0.218433
v 0.143624 0.594378 -0.184062
v 0.258289 0.797810 0.039857
v 0.256786 0.730000 0.083433
v 0.232388 0.662189 0.119572
v 0.232388 0.662189 -0.119572
v 0.256786 0.730000 -0.083433
v 0.258289 0.797810 -0.039857
v 0.041908 0.797811 0.257964
v -0.000000 0.730000 0.270000
v -0.041908 0.662189 0.257964
v 0.185533 0.662189 0.184063
v 0.158702 0.730000 0.218435
v 0.117722 0.797811 0.233331
v -0.232388 0.797811 0.119572
v -0.256786 0.730000 0.083433
v -0.258289 0.662190 0.039857
v -0.117722 0.662189 0.233331
v -0.158702 0.730000 0.218435
v -0.185533 0.797811 0.184063
v -0.185533 0.797811 -0.184063
v -0.158702 0.730000 -0.218435
v -0.117722 0.662189 -0.233331
v -0.258289 0.662190 -0.039857
v -0.256786 0.730000 -0.083433
v -0.232388 0.797811 -0.119572
v 0.117722 0.797811 -0.233331
v 0.158702 0.730000 -0.218435
v 0.185533 0.662189 -0.184063
v -0.041908 0.662189 -0.257964
v 0.000000 0.730000 -0.270000
v 0.041908 0.797811 -0.257964
v 0.224384 0.865621 0.064490
v 0.185811 0.871949 0.134999
v 0.130672 0.865621 0.193472
v 0.008003 0.865622 0.233330
v -0.070975 0.871949 0.218433
v -0.143624 0.865621 0.184062
v -0.219437 0.865621 0.079714
v -0.229675 0.871949 0.000000
v -0.219437 0.865621 -0.079714
v -0.143624 0.865621 -0.184062
v -0.070975 0.871949 -0.218433
v 0.008003 0.865622 -0.233330
v 0.130672 0.865621 -0.193472
v 0.185811 0.871949 -0.134999
v 0.224384 0.865621 -0.064490
v 0.020954 0.991346 0.064490
v 0.043863 0.959677 0.134999
v 0.062862 0.907530 0.193472
v 0.203429 0.907529 0.000000
v 0.141947 0.959676 0.000000
v 0.067810 0.991346 0.000000
v -0.054859 0.991346 0.039857
v -0.114837 0.959677 0.083433
v -0.164578 0.907530 0.119571
v -0.054859 0.991346 -0.039857
v -0.114837 0.959677 -0.083433
v -0.164578 0.907530 -0.119571
v 0.020954 0.991346 -0.064490
v 0.043863 0.959677 -0.134999
v 0.062862 0.907530 -0.193472
v 0.097686 0.971496 -0.070973
v 0.172312 0.925375 -0.070973
v 0.120746 0.925375 -0.141947
v -0.037313 0.971496 -0.114836
v -0.014253 0.925375 -0.185810
v -0.097687 0.925375 -0.158700
v -0.120747 0.971496 0.000000
v -0.181121 0.925375 -0.043863
v -0.181121 0.925375 0.043863
v -0.037313 0.971496 0.114836
v -0.097687 0.925375 0.158700
v -0.014253 0.925375 0.185810
v 0.097686 0.971496 0.070973
v 0.120746 0.925375 0.141947
v 0.172312 0.925375 0.070973
v 0.232687 0.804627 -0.114837
v 0.218435 0.730000 -0.158701
v 0.181122 0.804627 -0.185811
v -0.037314 0.804627 -0.256785
v -0.083434 0.730000 -0.256785
v -0.120748 0.804627 -0.229675
v -0.255748 0.804627 -0.043864
v -0.270000 0.730000 0.000000
v -0.255747 0.804627 0.043864
v -0.120748 0.804627 0.229675
v -0.083435 0.730000 0.256785
v -0.037314 0.804627 0.256785
v 0.181121 0.804627 0.185811
v 0.218435 0.729999 0.158701
v 0.232687 0.804626 0.114837
v 0.083435 0.730000 -0.256785
v 0.120748 0.655373 -0.229675
v 0.037314 0.655373 -0.256785
v -0.218435 0.730000 -0.158701
v -0.181121 0.655373 -0.185811
v -0.232687 0.655373 -0.114837
v -0.218435 0.730000 0.158701
v -0.232687 0.655373 0.114837
v -0.181121 0.655373 0.185811
v 0.083435 0.730000 0.256785
v 0.037314 0.655373 0.256785
v 0.120748 0.655373 0.229675
v 0.270000 0.730000 0.000000
v 0.255748 0.655373 0.043864
v 0.255748 0.655373 -0.043864
v 0.097687 0.534625 -0.158700
v 0.037313 0.488504 -0.114837
v 0.014253 0.534625 -0.185810
v -0.120747 0.534625 -0.141946
v -0.097686 0.488504 -0.070973
v -0.172313 0.534625 -0.070973
v -0.172313 0.534625 0.070973
v -0.097686 0.488504 0.070973
v -0.120747 0.534625 0.141947
v 0.181121 0.534625 -0.043863
v 0.181121 0.534625 0.043864
v 0.120747 0.488504 0.000000
v 0.014253 0.534625 0.185810
v 0.037314 0.488504 0.114837
v 0.097687 0.534625 0.158700
vn -0.3504 -0.6050 0.7149
vn 0.5367 -0.8135 0.2240
vn 0.3940 -0.8508 -0.3476
vn -0.0294 -0.9902 -0.1362
vn 0.5150 -0.8376 -0.1820
vn -0.2504 -0.8949 -0.3695
vn -0.0432 -0.6442 0.7636
vn -0.1715 -0.8592 0.4820
vn 0.0002 -0.7742 0.6330
vn 0.6314 0.0634 0.7728
vn 0.8269 0.1859 0.5308
vn -0.0733 -0.5828 -0.8093
vn 0.0309 0.4453 0.8949
vn 0.1589 0.3676 0.9163
vn 0.3729 -0.4682 -0.8011
vn -0.6005 -0.2957 -0.7429
vn -0.0122 -0.9055 0.4243
vn 0.2246 -0.4088 -0.8846
vn -0.5933 -0.1281 -0.7948
vn -0.7425 -0.6674 -0.0575
vn -0.3471 0.0008 0.9378
vn 0.6147 0.0903 0.7836
vn -0.8521 -0.4866 -0.1929
vn -0.6589 -0.4569 0.5975
vn -0.0380 -0.9384 -0.3433
vn 0.8183 -0.3990 -0.4136
vn 0.1771 0.0024 -0.9842
vn 0.9738 -0.2260 0.0237
vn 0.9497 -0.0560 -0.3081
vn -0.1770 0.1603 -0.9711
vn -0.6260 -0.1909 0.7561
vn -0.3480 0.0007 0.9375
vn -0.1229 -0.4881 0.8641
vn -0.3081 -0.3733 0.8751
vn -0.6808 -0.6229 0.3854
vn 0.7786 0.5304 0.3353
vn 0.7670 -0.0119 -0.6415
vn -0.9322 0.1713 -0.3188
vn -0.1195 -0.5395 0.8334
vn -0.3572 -0.4393 0.8243
vn 0.1263 -0.0261 0.9916
vn 0.7774 -0.1394 -0.6133
vn 0.8842 0.0094 -0.4671
vn -0.9752 -0.0994 0.1978
vn -0.0816 0.1932 -0.9778
vn 0.9697 0.2183 -0.1095
vn 0.6681 0.0815 -0.7396
vn 0.9933 0.0313 -0.1110
vn 0.0311 0.1428 -0.9893
vn 0.3551 -0.1671 -0.9198
vn 0.7292 -0.1517 0.6673
vn 0.6955 0.6002 0.3949
vn 0.7036 0.5305 -0.4728
vn 0.6089 0.3281 -0.7222
vn 0.0724 0.0012 -0.9974
vn -0.1008 0.1018 -0.9897
vn -0.3703 0.0524 -0.9274
vn 0.9214 -0.2209 -0.3197
vn 0.7595 -0.0906 0.6442
vn 0.6687 0.3581 0.6516
vn -0.0556 -0.1658 -0.9846
vn 0.3824 0.8793 -0.2837
vn 0.2488 0.6684 -0.7010
vn -0.2011 -0.2213 -0.9543
vn -0.8858 -0.2882 -0.3636
vn 0.5720 0.7495 0.3334
vn 0.1008 0.5138 -0.8520
vn -0.5675 0.1355 -0.8121
vn 0.3748 -0.2139 -0.9021
vn 0.4383 -0.2521 -0.8627
vn 0.9911 -0.0961 0.0924
vn 0.9901 -0.1015 0.0973
vn 0.5904 -0.0895 0.8021
vn 0.6488 -0.2167 -0.7294
vn 0.8106 -0.0479 -0.5836
vn 0.6709 0.0469 0.7401
vn -0.5029 0.1091 0.8574
vn -0.4394 0.1529 0.8852
vn 0.0803 -0.0090 0.9967
vn 0.8437 0.5366 0.0143
vn 0.0371 -0.9991 0.0217
vn -0.0238 -0.9997 -0.0088
vn -0.0041 -1.0000 -0.0081
vn 0.0567 -0.9921 -0.1117
vn 0.0413 0.1273 0.9910
vn 0.8396 0.5431 0.0037
vn 0.6986 0.4860 -0.5251
vn 0.0121 -0.9999 0.0059
vn -0.0769 -0.9969 0.0137
vn -0.9007 0.0446 0.4320
vn -0.1706 -0.1477 0.9742
vn 0.1183 0.0354 0.9923
vn 0.1503 0.1262 -0.9806
vn 0.1491 0.5958 0.7891
vn 0.5109 0.4551 0.7293
vn 0.5195 0.6529 0.5512
vn 0.4608 0.6165 -0.6384
vn -0.6774 -0.4846 -0.5535
vn -0.9767 0.2147 -0.0062
vn -0.5231 -0.2514 0.8144
vn 0.0151 -0.2217 0.9750
vn 0.0633 0.5416 0.8383
vn -0.9169 0.0653 -0.3937
vn -0.6816 -0.1435 0.7175
vn -0.5188 -0.1603 -0.8397
vn -0.5857 -0.1887 -0.7882
vn -0.8191 0.0765 -0.5685
vn -0.0314 -0.9992 -0.0231
vn -0.0036 -1.0000 0.0022
vn -0.0061 -1.0000 -0.0036
vn -0.0035 -1.0000 -0.0034
vn -0.0006 -1.0000 0.0018
vn 0.0266 -0.9996 0.0005
vn 0.1816 -0.9833 -0.0140
vn 0.6135 -0.2510 0.7487
vn 0.0008 0.1192 -0.9929
vn -0.1419 -0.2909 -0.9462
vn -0.9970 -0.0733 -0.0250
vn -0.1954 -0.9671 0.1632
vn -0.0799 -0.9919 -0.0986
vn -0.9041 0.2136 -0.3700
vn -0.9326 -0.0653 0.3550
vn -0.0433 -0.9519 0.3032
vn 0.1717 0.9408 -0.2924
vn -0.0251 0.8666 -0.4983
vn 0.3305 -0.1725 0.9279
vn 0.0039 0.9771 -0.2128
vn 0.0107 0.9743 -0.2249
vn 0.0056 0.9230 -0.3847
vn -0.2971 0.0647 -0.9527
vn -0.7181 -0.4282 0.5486
vn 0.0116 -0.1588 0.9872
vn -0.0705 0.9372 0.3416
vn 0.0481 0.9071 0.4182
vn 0.0583 0.9011 0.4297
vn -0.3414 0.7283 -0.5941
vn -0.9886 -0.1396 0.0561
vn -0.2913 -0.9566 0.0004
vn -0.1204 0.9917 0.0460
vn -0.4112 -0.9068 0.0933
vn -0.4928 -0.8640 -0.1035
vn -0.9503 -0.1111 -0.2907
vn -0.9290 0.1084 0.3538
vn -0.5436 0.4225 0.7253
vn 0.0649 0.8074 0.5864
vn 0.9006 -0.2071 -0.3821
vn 0.8299 -0.2757 -0.4850
vn 0.8185 -0.1946 0.5406
vn 0.9382 -0.2663 0.2211
vn 0.3012 0.4633 -0.8334
vn -0.2846 0.2721 -0.9192
vn -0.2689 0.2361 -0.9338
vn -0.5644 0.0669 -0.8228
vn -0.9754 -0.1425 -0.1684
vn -0.3480 0.0385 0.9367
vn 0.2471 -0.9679 0.0467
vn -0.3550 -0.0380 -0.9341
vn -0.6599 -0.7173 -0.2235
vn -0.6721 -0.7319 -0.1120
vn -0.7852 0.2297 0.5751
vn -0.1576 0.2937 0.9428
vn 0.6522 -0.7580 -0.0081
vn 0.5992 -0.8003 0.0233
vn 0.9429 -0.1612 0.2914
vn 0.6304 -0.7683 -0.1107
vn -0.3139 -0.1096 -0.9431
vn -0.4855 -0.3822 -0.7863
vn -0.7884 -0.3661 -0.4944
vn -0.8800 -0.0327 0.4738
vn -0.1804 0.0289 0.9832
vn -0.2626 0.3024 0.9163
vn 0.6332 -0.1632 0.7566
vn 0.9574 -0.2139 0.1941
vn -0.5896 -0.7970 0.1310
vn -0.8136 -0.0701 0.5772
vn 0.8172 -0.5581 0.1439
vn 0.8336 -0.5180 -0.1917
vn 0.9368 -0.2670 0.2261
vn 0.8884 -0.2578 -0.3798
vn -0.0340 0.0425 -0.9985
vn -0.0848 0.1973 -0.9767
vn 0.2187 0.2737 0.9366
vn 0.2083 0.2654 0.9414
vn -0.2334 -0.9347 0.2681
vn 0.4095 0.2376 -0.8808
vn 0.4134 0.2385 -0.8788
vn -0.2573 0.6173 -0.7434
vn -0.4382 0.2967 -0.8485
vn -0.9939 0.1099 0.0078
vn -0.5913 -0.4166 0.6905
vn -0.5933 -0.5079 0.6245
vn -0.8368 -0.5473 -0.0156
vn -0.7406 -0.6365 0.2151
vn -0.2767 0.0418 0.9600
vn 0.2261 0.0305 0.9736
vn 0.7084 -0.1188 -0.6957
vn 0.4634 -0.1169 -0.8784
vn -0.3484 -0.1248 0.9290
vn 0.0788 -0.1041 -0.9914
vn -0.0318 -0.0301 -0.9990
vn -0.8133 -0.2245 0.5368
vn -0.5666 -0.4075 0.7162
vn -0.1662 0.2445 -0.9553
vn -0.3708 -0.0578 -0.9269
vn -0.8596 -0.2419 -0.4501
vn -0.7624 -0.4304 0.4833
vn -0.1964 -0.0001 0.9805
vn 0.0760 -0.9264 -0.3688
vn 0.1779 -0.7287 -0.6613
vn -0.1523 -0.7999 -0.5805
vn -0.0892 -0.9959 0.0155
vn 0.0060 -0.6980 0.7161
vn -0.1620 -0.9758 -0.1470
vn -0.5664 -0.5448 0.6184
vn -0.0171 -0.6347 0.7726
vn 0.5155 -0.7551 0.4052
vn 0.6246 -0.7193 -0.3041
vn 0.0746 0.3631 -0.9288
vn 0.5903 -0.7049 0.3933
vn 0.1130 0.3374 -0.9345
vn 0.8217 -0.4453 -0.3558
vn 0.6241 -0.7054 -0.3361
vn -0.4640 -0.8852 0.0335
vn 0.2273 -0.2410 0.9435
vn -0.1767 0.2403 -0.9545
vn -0.7641 -0.2904 0.5761
vn 0.6967 -0.4682 0.5434
vn 0.8250 0.0885 -0.5582
vn 0.3631 -0.8560 0.3679
vn -0.4211 -0.8723 -0.2484
vn -0.4383 -0.1495 -0.8863
vn -0.6401 -0.7519 -0.1577
vn 0.2239 -0.1647 0.9606
vn 0.5049 -0.6376 0.5818
vn 0.9861 0.0334 0.1627
vn 0.0313 -0.7272 -0.6857
vn 0.4147 -0.4123 0.8112
vn 0.6521 -0.4749 0.5910
vn 0.8573 -0.5024 0.1125
vn 0.8618 -0.4743 -0.1798
vn 0.1645 0.6088 0.7761
vn -0.2434 0.4333 0.8677
vn 0.2425 0.2010 -0.9491
vn -0.0383 -0.2789 -0.9596
vn -0.1449 -0.4118 0.8997
vn 0.4878 -0.2322 0.8415
vn 0.4824 -0.2382 0.8430
vn 0.7338 -0.0808 0.6745
vn 0.2767 0.9331 0.2298
vn 0.6665 0.6776 -0.3109
vn 0.2192 0.4369 -0.8724
vn -0.4478 0.3000 -0.8423
vn -0.9621 -0.0543 -0.2672
vn -0.9680 -0.1051 -0.2278
vn -0.6171 -0.4228 0.6636
vn -0.6403 -0.4021 0.6545
vn -0.8161 -0.0484 -0.5759
vn -0.7111 -0.4289 0.5570
vn -0.5194 -0.1979 0.8313
vn 0.3189 -0.2867 0.9034
vn -0.1868 -0.7994 -0.5710
vn -0.1486 0.1201 0.9816
vn -0.1817 -0.5046 -0.8440
vn -0.3849 -0.2986 -0.8733
vn -0.7523 -0.2156 -0.6225
vn -0.1915 0.1432 0.9710
vn 0.9029 -0.1374 0.4073
vn 0.9093 0.1249 -0.3970
vn 0.9088 -0.3478 -0.2305
vn 0.0787 -0.5292 0.8449
vn 0.2443 0.5563 0.7943
vn 0.1845 -0.3445 0.9205
vn 0.4773 -0.3460 0.8078
vn 0.7185 0.6215 -0.3122
vn 0.0540 0.1816 -0.9819
vn -0.3368 0.2166 -0.9163
vn -0.9109 -0.2393 -0.3363
vn -0.9240 -0.3780 -0.0572
vn -0.0717 -0.0290 0.9970
vn -0.0057 -0.0331 0.9994
vn -0.6739 0.0252 0.7384
vn 0.9347 0.0152 0.3550
vn 0.2781 0.6805 -0.6779
vn 0.1880 0.1688 -0.9676
vn 0.7650 -0.1738 -0.6201
vn 0.4944 -0.3712 -0.7860
vn 0.1405 -0.7157 0.6842
vn 0.2111 0.4930 0.8440
vn 0.1082 0.1092 -0.9881
vn 0.0390 0.1021 -0.9940
vn 0.4089 0.7025 -0.5825
vn -0.4132 0.4006 -0.8178
vn -0.8904 -0.2374 0.3884
vn -0.2384 -0.1917 0.9521
vn 0.0179 -0.0007 0.9998
vn -0.1484 -0.0542 -0.9874
vn -0.1807 0.5019 -0.8458
vn 0.3067 0.7013 -0.6435
vn -0.0372 -0.0391 -0.9985
vn 0.6048 -0.0152 0.7962
vn 0.8424 -0.1943 0.5027
vn 0.9580 -0.1714 0.2300
vn 0.2435 0.2168 -0.9454
vn 0.3105 0.2309 -0.9221
vn 0.3617 0.4854 -0.7960
vn -0.9709 -0.2289 0.0700
vn -0.5829 -0.0509 0.8110
vn -0.9010 -0.0632 -0.4292
vn 0.4939 0.2163 0.8422
vn 0.9704 -0.1308 0.2029
vn 0.9548 0.0740 0.2879
vn 0.8684 0.4053 -0.2855
vn 0.6933 0.3817 -0.6113
vn -0.1036 0.1562 0.9823
vn -0.4198 -0.4312 -0.7986
vn -0.8540 -0.3136 -0.4152
vn -0.9653 0.2151 0.1482
vn -0.8147 0.2432 0.5265
vn -0.1452 0.5040 0.8514
vn 0.0310 0.4667 -0.8839
vn 0.1371 -0.2400 -0.9610
vn 0.0372 0.0878 0.9954
vn 0.5464 0.2294 -0.8055
vn 0.2531 0.2237 -0.9412
vn 0.9669 0.2130 -0.1403
vn -0.9991 0.0430 0.0053
vn -0.5614 0.3300 -0.7589
vn -0.5740 0.3301 -0.7494
vn -0.8144 0.2085 -0.5416
vn -0.1308 0.2009 0.9708
vn -0.3168 0.6534 0.6875
vn 0.2706 0.2416 0.9319
vn 0.6800 0.0502 0.7315
vn 0.7661 0.0530 0.6405
vn 0.9892 -0.0859 -0.1184
vn 0.7879 0.1036 -0.6071
vn 0.4738 0.2958 -0.8295
vn 0.2843 0.6253 -0.7267
vn -0.9935 -0.1011 0.0530
vn -0.6189 0.0460 -0.7841
vn -0.8987 0.1522 0.4112
vn -0.7653 0.1356 0.6292
vn -0.9468 -0.3168 0.0569
vn -0.7487 -0.3270 -0.5767
vn -0.8498 -0.3091 -0.4270
vn -0.9363 -0.0613 0.3457
vn -0.2323 0.2576 0.9379
vn 0.3518 0.8723 -0.3397
vn 0.5460 -0.2690 -0.7934
vn 0.5517 -0.2037 -0.8088
vn 0.3342 0.2558 0.9071
vn 0.4051 0.3074 0.8611
vn 0.1965 0.5473 -0.8135
vn -0.0548 0.7462 -0.6635
vn -0.6334 0.4551 -0.6259
vn -0.9831 0.1735 -0.0589
vn -0.9947 0.0664 0.0790
vn -0.9122 0.1230 0.3908
vn -0.8108 -0.3097 -0.4966
vn 0.6391 0.6542 0.4045
vn 0.4444 -0.3089 -0.8409
vn 0.9469 0.2564 -0.1942
vn -0.8603 0.2712 -0.4316
vn -0.1433 0.2092 0.9673
vn -0.4617 0.2853 0.8399
vn 0.2049 0.4924 0.8459
vn 0.4563 0.3918 0.7989
vn 0.5556 0.6558 0.5111
vn 0.9482 0.2464 0.2005
vn 0.9333 0.2843 -0.2195
vn 0.6364 0.5075 -0.5808
vn 0.5411 0.5674 -0.6208
vn 0.1730 0.8190 -0.5471
vn -0.3411 0.7056 -0.6211
vn -0.7626 0.4114 -0.4991
vn -0.3596 0.2730 0.8923
vn -0.8985 0.0352 0.4376
vn 0.9357 0.0711 -0.3457
vn 0.1777 0.3019 0.9366
vn 0.3709 0.2412 0.8968
vn 0.8814 0.2875 -0.3748
vn 0.6673 0.2520 -0.7008
vn 0.1765 0.8257 -0.5358
vn 0.2668 0.8440 -0.4653
vn -0.8771 0.4218 -0.2297
vn -0.9254 0.3578 -0.1246
vn -0.3852 0.2899 0.8761
vn 0.8840 0.0369 -0.4661
vn 0.6680 0.3464 0.6587
vn 0.8976 -0.1913 -0.3972
vn 0.7468 0.3442 -0.5691
vn -0.4879 0.6913 -0.5330
vn -0.4397 0.7578 -0.4821
vn -0.9801 0.1572 -0.1213
vn -0.5858 0.3160 0.7463
vn -0.9658 0.1241 0.2276
vn 0.8062 0.3285 0.4921
vn 0.8958 0.3614 0.2588
vn 0.8776 0.3703 0.3044
vn -0.8839 0.3433 0.3176
vn -0.7513 0.4761 0.4570
vn 0.6541 0.4643 0.5971
vn 0.9279 -0.3213 0.1893
vn 0.9116 0.3806 -0.1554
vn -0.9119 0.2019 -0.3572
vn -0.8025 0.4574 -0.3831
vn -0.4892 -0.1654 0.8564
vn -0.4138 0.5203 0.7470
vn 0.7471 0.3998 0.5311
vn 0.6920 0.5921 -0.4130
vn -0.9082 0.3868 0.1599
vn -0.8450 0.3613 0.3943
vn -0.0458 0.6399 0.7671
vn 0.9578 -0.1952 0.2111
vn 0.9207 0.3680 -0.1299
vn 0.6699 0.5316 -0.5184
vn -0.8549 0.1738 0.4888
vn -0.8144 0.2105 0.5408
vn 0.7224 0.4644 0.5123
vn -0.7691 0.2942 0.5674
vn 0.1373 0.7379 0.6608
vn 0.7021 0.4722 0.5330
vn 0.8785 0.4487 -0.1642
vn -0.9995 0.0282 0.0134
vn -0.8599 0.4915 0.1379
vn 0.0818 0.8294 0.5526
vn 0.5263 0.8351 0.1600
vn 0.5375 0.6432 0.5454
vn 0.9003 0.3521 0.2559
vn -0.5700 0.7129 0.4085
vn -0.5700 0.7132 0.4079
vn -0.1083 0.8734 0.4748
vn 0.1454 0.8871 0.4381
vn -0.0661 -0.9915 0.1122
vn 0.0482 -0.9878 0.1482
vn 0.7230 -0.5545 0.4121
vn -0.1261 -0.9878 0.0916
vn -0.1261 -0.9878 -0.0916
vn 0.0482 -0.9878 -0.1482
vn 0.8193 -0.3987 0.4121
vn -0.1387 -0.3987 0.9065
vn -0.9050 -0.3987 0.1482
vn -0.4206 -0.3987 -0.8149
vn 0.6451 -0.3987 -0.6519
vn 0.7711 -0.3024 0.5603
vn -0.2945 -0.3024 0.9065
vn -0.9532 -0.3024 -0.0000
vn -0.2945 -0.3024 -0.9065
vn 0.7711 -0.3024 -0.5603
vn 0.3427 0.5545 0.7583
vn -0.6153 0.5545 0.5603
vn -0.7230 0.5545 -0.4121
vn 0.1685 0.5545 -0.8149
vn 0.8271 0.5545 -0.0916
vn 0.1261 0.9878 -0.0916
vn 0.3912 0.9158 -0.0915
vn 0.6441 0.7594 -0.0915
vn 0.2334 0.9575 -0.1696
vn 0.2079 0.9158 -0.3438
vn 0.5168 0.8363 -0.1830
vn 0.4911 0.7947 -0.3568
vn 0.3338 0.8363 -0.4350
vn 0.2860 0.7594 -0.5843
vn 0.7520 0.6369 -0.1696
vn 0.7261 0.5955 -0.3438
vn 0.5987 0.6726 -0.4350
vn 0.5513 0.5955 -0.5843
vn 0.3936 0.6369 -0.6628
vn 0.3427 0.5545 -0.7583
vn -0.0482 0.9878 -0.1482
vn 0.0339 0.9158 -0.4003
vn 0.1121 0.7594 -0.6409
vn -0.0891 0.9575 -0.2743
vn -0.2627 0.9158 -0.3039
vn -0.0144 0.8363 -0.5481
vn -0.1876 0.7947 -0.5773
vn -0.3105 0.8363 -0.4519
vn -0.4674 0.7594 -0.4526
vn 0.0711 0.6369 -0.7676
vn -0.1026 0.5955 -0.7968
vn -0.2287 0.6726 -0.7038
vn -0.3854 0.5955 -0.7049
vn -0.5087 0.6369 -0.5792
vn -0.6153 0.5545 -0.5603
vn -0.1558 0.9878 -0.0000
vn -0.3702 0.9158 -0.1559
vn -0.5749 0.7594 -0.3046
vn -0.2885 0.9575 -0.0000
vn -0.3702 0.9158 0.1559
vn -0.5257 0.8363 -0.1557
vn -0.6071 0.7947 -0.0000
vn -0.5257 0.8363 0.1557
vn -0.5749 0.7594 0.3046
vn -0.7081 0.6369 -0.3049
vn -0.7895 0.5955 -0.1487
vn -0.7400 0.6726 -0.0000
vn -0.7895 0.5955 0.1487
vn -0.7081 0.6369 0.3049
vn -0.7230 0.5545 0.4121
vn -0.0482 0.9878 0.1482
vn -0.2627 0.9158 0.3039
vn -0.4674 0.7594 0.4526
vn -0.0891 0.9575 0.2743
vn 0.0339 0.9158 0.4003
vn -0.3105 0.8363 0.4519
vn -0.1876 0.7947 0.5773
vn -0.0144 0.8363 0.5481
vn 0.1121 0.7594 0.6409
vn -0.5087 0.6369 0.5792
vn -0.3854 0.5955 0.7049
vn -0.2287 0.6726 0.7038
vn -0.1026 0.5955 0.7968
vn 0.0711 0.6369 0.7676
vn 0.1685 0.5545 0.8149
vn 0.1261 0.9878 0.0916
vn 0.2079 0.9158 0.3438
vn 0.2860 0.7594 0.5843
vn 0.2334 0.9575 0.1696
vn 0.3912 0.9158 0.0915
vn 0.3338 0.8363 0.4350
vn 0.4911 0.7947 0.3568
vn 0.5168 0.8363 0.1830
vn 0.6441 0.7594 0.0915
vn 0.3936 0.6369 0.6628
vn 0.5513 0.5955 0.5843
vn 0.5987 0.6726 0.4350
vn 0.7261 0.5955 0.3438
vn 0.7520 0.6369 0.1696
vn 0.8271 0.5545 0.0916
vn 0.9050 0.3987 -0.1482
vn 0.9366 0.1745 -0.3039
vn 0.8883 -0.0784 -0.4526
vn 0.8963 0.3485 -0.2743
vn 0.8039 0.4399 -0.4003
vn 0.8869 0.0962 -0.4519
vn 0.7947 0.1876 -0.5773
vn 0.7544 0.3611 -0.5481
vn 0.6291 0.4399 -0.6409
vn 0.7972 -0.1702 -0.5792
vn 0.7049 -0.0784 -0.7049
vn 0.7038 0.0962 -0.7038
vn 0.5785 0.1745 -0.7968
vn 0.5379 0.3485 -0.7676
vn 0.4206 0.3987 -0.8149
vn 0.1387 0.3987 -0.9065
vn 0.0004 0.1745 -0.9846
vn -0.1560 -0.0784 -0.9846
vn 0.0160 0.3485 -0.9372
vn -0.1323 0.4399 -0.8883
vn -0.1557 0.0962 -0.9831
vn -0.3035 0.1876 -0.9342
vn -0.2882 0.3611 -0.8869
vn -0.4151 0.4399 -0.7964
vn -0.3045 -0.1702 -0.9372
vn -0.4526 -0.0784 -0.8883
vn -0.4519 0.0962 -0.8869
vn -0.5791 0.1745 -0.7964
vn -0.5638 0.3485 -0.7488
vn -0.6451 0.3987 -0.6519
vn -0.8193 0.3987 -0.4121
vn -0.9363 0.1745 -0.3046
vn -0.9846 -0.0784 -0.1560
vn -0.8864 0.3485 -0.3049
vn -0.8857 0.4399 -0.1487
vn -0.9831 0.0962 -0.1557
vn -0.9822 0.1876 -0.0000
vn -0.9325 0.3611 -0.0000
vn -0.8857 0.4399 0.1487
vn -0.9854 -0.1702 -0.0000
vn -0.9846 -0.0784 0.1560
vn -0.9831 0.0962 0.1557
vn -0.9363 0.1745 0.3046
vn -0.8864 0.3485 0.3049
vn -0.8193 0.3987 0.4121
vn -0.6451 0.3987 0.6519
vn -0.5791 0.1745 0.7964
vn -0.4526 -0.0784 0.8883
vn -0.5638 0.3485 0.7488
vn -0.4151 0.4399 0.7964
vn -0.4519 0.0962 0.8869
vn -0.3035 0.1876 0.9342
vn -0.2882 0.3611 0.8869
vn -0.1323 0.4399 0.8883
vn -0.3045 -0.1702 0.9372
vn -0.1560 -0.0784 0.9846
vn -0.1557 0.0962 0.9831
vn 0.0004 0.1745 0.9846
vn 0.0160 0.3485 0.9372
vn 0.1387 0.3987 0.9065
vn 0.4206 0.3987 0.8149
vn 0.5785 0.1745 0.7968
vn 0.7049 -0.0784 0.7049
vn 0.5379 0.3485 0.7676
vn 0.6291 0.4399 0.6409
vn 0.7038 0.0962 0.7038
vn 0.7947 0.1876 0.5773
vn 0.7544 0.3611 0.5481
vn 0.8039 0.4399 0.4003
vn 0.7972 -0.1702 0.5792
vn 0.8883 -0.0784 0.4526
vn 0.8869 0.0962 0.4519
vn 0.9366 0.1745 0.3039
vn 0.8963 0.3485 0.2744
vn 0.9050 0.3987 0.1482
vn 0.2945 0.3024 -0.9065
vn 0.4526 0.0784 -0.8883
vn 0.5791 -0.1745 -0.7964
vn 0.3045 0.1702 -0.9372
vn 0.1560 0.0784 -0.9846
vn 0.4519 -0.0962 -0.8869
vn 0.3035 -0.1876 -0.9342
vn 0.1557 -0.0962 -0.9831
vn -0.0004 -0.1745 -0.9846
vn 0.5638 -0.3485 -0.7488
vn 0.4151 -0.4399 -0.7964
vn 0.2882 -0.3611 -0.8869
vn 0.1323 -0.4399 -0.8883
vn -0.0160 -0.3485 -0.9372
vn -0.1387 -0.3987 -0.9065
vn -0.7711 0.3024 -0.5603
vn -0.7049 0.0784 -0.7049
vn -0.5785 -0.1745 -0.7968
vn -0.7972 0.1702 -0.5792
vn -0.8883 0.0784 -0.4526
vn -0.7038 -0.0962 -0.7038
vn -0.7947 -0.1876 -0.5774
vn -0.8869 -0.0962 -0.4519
vn -0.9366 -0.1745 -0.3039
vn -0.5379 -0.3485 -0.7676
vn -0.6291 -0.4399 -0.6409
vn -0.7544 -0.3611 -0.5481
vn -0.8039 -0.4399 -0.4003
vn -0.8963 -0.3485 -0.2744
vn -0.9050 -0.3987 -0.1482
vn -0.7711 0.3024 0.5603
vn -0.8883 0.0784 0.4526
vn -0.9366 -0.1745 0.3039
vn -0.7972 0.1702 0.5792
vn -0.7049 0.0784 0.7049
vn -0.8869 -0.0962 0.4519
vn -0.7947 -0.1876 0.5774
vn -0.7038 -0.0962 0.7038
vn -0.5785 -0.1745 0.7968
vn -0.8963 -0.3485 0.2744
vn -0.8039 -0.4399 0.4003
vn -0.7544 -0.3611 0.5481
vn -0.6291 -0.4399 0.6409
vn -0.5379 -0.3485 0.7676
vn -0.4206 -0.3987 0.8149
vn 0.2945 0.3024 0.9065
vn 0.1560 0.0784 0.9846
vn -0.0004 -0.1745 0.9846
vn 0.3045 0.1702 0.9372
vn 0.4526 0.0784 0.8883
vn 0.1557 -0.0962 0.9831
vn 0.3035 -0.1876 0.9342
vn 0.4519 -0.0962 0.8869
vn 0.5791 -0.1745 0.7964
vn -0.0160 -0.3485 0.9372
vn 0.1323 -0.4399 0.8883
vn 0.2882 -0.3611 0.8869
vn 0.4151 -0.4399 0.7964
vn 0.5638 -0.3485 0.7488
vn 0.6451 -0.3987 0.6519
vn 0.9532 0.3024 -0.0000
vn 0.9846 0.0784 0.1560
vn 0.9363 -0.1745 0.3046
vn 0.9854 0.1702 -0.0000
vn 0.9846 0.0784 -0.1560
vn 0.9831 -0.0962 0.1557
vn 0.9822 -0.1876 -0.0000
vn 0.9831 -0.0962 -0.1557
vn 0.9363 -0.1745 -0.3046
vn 0.8864 -0.3485 0.3049
vn 0.8857 -0.4399 0.1487
vn 0.9325 -0.3611 -0.0000
vn 0.8857 -0.4399 -0.1487
vn 0.8864 -0.3485 -0.3049
vn 0.8193 -0.3987 -0.4121
vn 0.6153 -0.5545 -0.5603
vn 0.4674 -0.7594 -0.4526
vn 0.2627 -0.9158 -0.3039
vn 0.5087 -0.6369 -0.5792
vn 0.3854 -0.5955 -0.7049
vn 0.3105 -0.8363 -0.4519
vn 0.1876 -0.7947 -0.5773
vn 0.2287 -0.6726 -0.7038
vn 0.1026 -0.5955 -0.7968
vn 0.0891 -0.9575 -0.2743
vn -0.0339 -0.9158 -0.4003
vn 0.0144 -0.8363 -0.5481
vn -0.1121 -0.7594 -0.6409
vn -0.0711 -0.6369 -0.7676
vn -0.1685 -0.5545 -0.8149
vn -0.3427 -0.5545 -0.7583
vn -0.2860 -0.7594 -0.5843
vn -0.2079 -0.9158 -0.3438
vn -0.3936 -0.6369 -0.6628
vn -0.5513 -0.5955 -0.5843
vn -0.3338 -0.8363 -0.4350
vn -0.4911 -0.7947 -0.3568
vn -0.5987 -0.6726 -0.4350
vn -0.7261 -0.5955 -0.3438
vn -0.2334 -0.9575 -0.1696
vn -0.3912 -0.9158 -0.0914
vn -0.5168 -0.8363 -0.1830
vn -0.6441 -0.7594 -0.0915
vn -0.7520 -0.6369 -0.1696
vn -0.8271 -0.5545 -0.0916
vn -0.8271 -0.5545 0.0916
vn -0.6441 -0.7594 0.0915
vn -0.3912 -0.9158 0.0915
vn -0.7520 -0.6369 0.1696
vn -0.7261 -0.5955 0.3438
vn -0.5168 -0.8363 0.1830
vn -0.4911 -0.7947 0.3568
vn -0.5987 -0.6726 0.4350
vn -0.5513 -0.5955 0.5843
vn -0.2334 -0.9575 0.1696
vn -0.2079 -0.9158 0.3438
vn -0.3338 -0.8363 0.4350
vn -0.2860 -0.7594 0.5843
vn -0.3936 -0.6369 0.6628
vn -0.3427 -0.5545 0.7583
vn 0.7230 -0.5545 -0.4121
vn 0.7895 -0.5955 -0.1487
vn 0.7895 -0.5955 0.1487
vn 0.7081 -0.6369 -0.3049
vn 0.5749 -0.7594 -0.3046
vn 0.7400 -0.6726 -0.0000
vn 0.6071 -0.7947 -0.0000
vn 0.5257 -0.8363 -0.1557
vn 0.3702 -0.9158 -0.1559
vn 0.7081 -0.6369 0.3049
vn 0.5749 -0.7594 0.3046
vn 0.5257 -0.8363 0.1557
vn 0.3702 -0.9158 0.1560
vn 0.2885 -0.9575 -0.0000
vn 0.1558 -0.9878 -0.0000
vn -0.1685 -0.5545 0.8149
vn -0.1121 -0.7594 0.6409
vn -0.0339 -0.9158 0.4003
vn -0.0711 -0.6369 0.7676
vn 0.1026 -0.5955 0.7968
vn 0.0144 -0.8363 0.5481
vn 0.1876 -0.7947 0.5773
vn 0.2287 -0.6726 0.7038
vn 0.3854 -0.5955 0.7049
vn 0.0891 -0.9575 0.2744
vn 0.2627 -0.9158 0.3039
vn 0.3105 -0.8363 0.4519
vn 0.4674 -0.7594 0.4526
vn 0.5087 -0.6369 0.5792
vn 0.6153 -0.5545 0.5603
s 0
usemtl マテリアル.002
f 35//1 9//1 10//1
f 21//2 14//2 15//2
f 15//3 18//3 16//3
f 19//4 18//4 15//4
f 21//5 15//5 16//5
f 20//6 18//6 19//6
f 17//7 15//7 14//7
f 19//8 15//8 17//8
f 17//9 14//9 22//9
f 13//10 24//10 21//10
f 24//11 14//11 21//11
f 18//12 20//12 25//12
f 23//13 22//13 24//13
f 22//14 14//14 24//14
f 29//15 16//15 18//15
f 25//16 20//16 26//16
f 27//17 23//17 24//17
f 18//18 25//18 29//18
f 25//19 26//19 32//19
f 20//20 19//20 28//20
f 22//21 23//21 17//21
f 27//22 24//22 13//22
f 20//23 28//23 26//23
f 28//24 19//24 17//24
f 27//25 13//25 30//25
f 30//26 13//26 33//26
f 29//27 25//27 31//27
f 39//28 30//28 33//28
f 13//29 21//29 16//29
f 25//30 32//30 31//30
f 28//31 17//31 34//31
f 17//32 23//32 34//32
f 12//33 23//33 10//33
f 23//34 35//34 10//34
f 36//35 35//35 27//35
f 39//36 33//36 7//36
f 16//37 29//37 37//37
f 41//38 32//38 26//38
f 27//39 35//39 23//39
f 23//40 12//40 11//40
f 12//41 10//41 38//41
f 33//42 13//42 37//42
f 13//43 16//43 37//43
f 26//44 28//44 34//44
f 8//45 11//45 42//45
f 48//46 49//46 47//46
f 48//47 46//47 50//47
f 48//48 47//48 51//48
f 45//49 50//49 52//49
f 50//50 46//50 52//50
f 47//51 60//51 51//51
f 53//52 47//52 49//52
f 49//53 48//53 58//53
f 48//54 50//54 58//54
f 50//55 45//55 54//55
f 45//56 55//56 54//56
f 55//57 45//57 56//57
f 46//58 48//58 51//58
f 57//59 51//59 60//59
f 60//60 47//60 53//60
f 62//61 54//61 59//61
f 66//62 49//62 58//62
f 61//63 50//63 54//63
f 59//64 54//64 55//64
f 56//65 65//65 64//65
f 66//66 53//66 49//66
f 58//67 50//67 61//67
f 55//68 56//68 63//68
f 61//69 54//69 92//69
f 92//70 54//70 62//70
f 72//71 71//71 73//71
f 73//72 71//72 70//72
f 74//73 70//73 75//73
f 76//74 81//74 73//74
f 81//75 72//75 73//75
f 75//76 70//76 71//76
f 77//77 78//77 84//77
f 84//78 78//78 69//78
f 78//79 74//79 75//79
f 83//80 72//80 80//80
f 70//81 74//81 73//81
f 73//82 74//82 76//82
f 76//83 74//83 78//83
f 78//84 77//84 79//84
f 78//85 75//85 82//85
f 71//86 72//86 83//86
f 80//87 72//87 81//87
f 76//88 78//88 67//88
f 78//89 79//89 67//89
f 79//90 77//90 84//90
f 69//91 68//91 85//91
f 78//92 82//92 69//92
f 87//93 81//93 76//93
f 86//94 82//94 75//94
f 75//95 71//95 88//95
f 88//96 71//96 83//96
f 80//97 81//97 87//97
f 67//98 79//98 95//98
f 79//99 84//99 89//99
f 84//100 69//100 85//100
f 69//101 82//101 68//101
f 75//102 88//102 86//102
f 95//103 79//103 89//103
f 84//104 85//104 90//104
f 59//105 55//105 91//105
f 91//106 55//106 63//106
f 63//107 56//107 64//107
f 56//108 45//108 65//108
f 45//109 52//109 65//109
f 65//110 52//110 44//110
f 57//111 44//111 46//111
f 44//112 52//112 46//112
f 46//113 51//113 57//113
f 62//114 68//114 93//114
f 93//115 82//115 86//115
f 87//116 76//116 94//116
f 76//117 67//117 94//117
f 89//118 84//118 90//118
f 68//119 62//119 85//119
f 85//120 62//120 59//120
f 63//121 64//121 96//121
f 64//122 65//122 104//122
f 57//123 43//123 44//123
f 97//124 66//124 58//124
f 97//125 58//125 61//125
f 68//126 82//126 93//126
f 98//127 83//127 100//127
f 83//128 80//128 100//128
f 80//129 87//129 100//129
f 67//130 95//130 94//130
f 104//131 65//131 44//131
f 43//132 57//132 60//132
f 53//133 66//133 99//133
f 88//134 83//134 86//134
f 86//135 83//135 98//135
f 100//136 87//136 94//136
f 101//137 89//137 90//137
f 85//138 59//138 91//138
f 66//139 97//139 99//139
f 90//140 85//140 102//140
f 85//141 91//141 102//141
f 91//142 63//142 103//142
f 96//143 64//143 104//143
f 53//144 99//144 60//144
f 107//145 60//145 99//145
f 61//146 92//146 97//146
f 97//147 92//147 105//147
f 93//148 86//148 109//148
f 98//149 109//149 86//149
f 110//150 100//150 94//150
f 110//151 94//151 95//151
f 110//152 95//152 89//152
f 106//153 89//153 101//153
f 63//154 96//154 103//154
f 104//155 44//155 43//155
f 92//156 62//156 93//156
f 89//157 106//157 110//157
f 90//158 113//158 101//158
f 113//159 90//159 102//159
f 96//160 104//160 111//160
f 43//161 60//161 107//161
f 92//162 93//162 105//162
f 105//163 93//163 108//163
f 99//164 97//164 105//164
f 108//165 93//165 109//165
f 112//166 42//166 106//166
f 112//167 106//167 101//167
f 112//168 101//168 113//168
f 103//169 96//169 114//169
f 111//170 104//170 107//170
f 104//171 43//171 107//171
f 107//172 99//172 115//172
f 115//173 99//173 105//173
f 91//174 103//174 102//174
f 114//175 96//175 111//175
f 116//176 105//176 108//176
f 108//177 109//177 117//177
f 109//178 98//178 117//178
f 98//179 100//179 117//179
f 110//180 106//180 36//180
f 42//181 11//181 12//181
f 9//182 35//182 38//182
f 38//183 35//183 118//183
f 27//184 30//184 36//184
f 29//185 40//185 37//185
f 29//186 31//186 40//186
f 32//187 41//187 31//187
f 120//188 31//188 41//188
f 41//189 26//189 34//189
f 23//190 11//190 153//190
f 153//191 11//191 8//191
f 113//192 102//192 125//192
f 102//193 103//193 125//193
f 114//194 111//194 122//194
f 107//195 115//195 122//195
f 36//196 117//196 100//196
f 100//197 110//197 36//197
f 35//198 36//198 119//198
f 36//199 106//199 119//199
f 106//200 42//200 119//200
f 10//201 9//201 38//201
f 34//202 23//202 153//202
f 121//203 8//203 42//203
f 42//204 112//204 124//204
f 154//205 112//205 113//205
f 125//206 103//206 126//206
f 111//207 107//207 122//207
f 148//208 127//208 129//208
f 131//209 135//209 132//209
f 135//210 131//210 136//210
f 131//211 130//211 133//211
f 133//212 130//212 134//212
f 136//213 131//213 133//213
f 138//214 133//214 137//214
f 137//215 133//215 134//215
f 130//216 131//216 134//216
f 139//217 131//217 132//217
f 132//218 135//218 127//218
f 139//219 134//219 131//219
f 127//220 135//220 129//220
f 141//221 143//221 142//221
f 141//222 128//222 143//222
f 127//223 148//223 128//223
f 137//224 134//224 140//224
f 145//225 129//225 135//225
f 146//226 138//226 137//226
f 134//227 139//227 140//227
f 139//228 132//228 127//228
f 127//229 128//229 141//229
f 128//230 148//230 144//230
f 135//231 136//231 145//231
f 136//232 133//232 138//232
f 147//233 137//233 140//233
f 127//234 141//234 172//234
f 150//235 141//235 142//235
f 143//236 128//236 144//236
f 144//237 122//237 115//237
f 115//238 105//238 116//238
f 116//239 108//239 159//239
f 159//240 108//240 117//240
f 7//241 118//241 160//241
f 118//242 35//242 160//242
f 160//243 35//243 119//243
f 42//244 12//244 119//244
f 119//245 12//245 9//245
f 161//246 118//246 151//246
f 151//247 118//247 176//247
f 176//248 118//248 177//248
f 7//249 123//249 118//249
f 7//250 33//250 37//250
f 40//251 31//251 120//251
f 120//252 41//252 152//252
f 152//253 41//253 153//253
f 153//254 41//254 34//254
f 5//255 153//255 121//255
f 153//256 8//256 121//256
f 124//257 112//257 154//257
f 103//258 114//258 126//258
f 156//259 126//259 114//259
f 122//260 144//260 148//260
f 129//261 145//261 148//261
f 157//262 6//262 158//262
f 158//263 6//263 145//263
f 6//264 148//264 145//264
f 145//265 136//265 138//265
f 137//266 147//266 149//266
f 140//267 139//267 172//267
f 139//268 127//268 172//268
f 159//269 117//269 175//269
f 30//270 39//270 36//270
f 39//271 7//271 160//271
f 12//272 38//272 161//272
f 38//273 118//273 161//273
f 123//274 7//274 37//274
f 121//275 42//275 5//275
f 5//276 42//276 124//276
f 154//277 113//277 166//277
f 113//278 125//278 166//278
f 156//279 122//279 157//279
f 157//280 122//280 148//280
f 146//281 137//281 149//281
f 172//282 141//282 150//282
f 150//283 142//283 164//283
f 168//284 142//284 143//284
f 175//285 117//285 165//285
f 117//286 36//286 165//286
f 36//287 39//287 165//287
f 39//288 160//288 165//288
f 119//289 9//289 161//289
f 9//290 12//290 161//290
f 37//291 40//291 123//291
f 162//292 120//292 152//292
f 155//293 125//293 126//293
f 114//294 122//294 156//294
f 157//295 148//295 167//295
f 148//296 6//296 167//296
f 168//297 167//297 164//297
f 164//298 142//298 168//298
f 168//299 143//299 144//299
f 168//300 144//300 115//300
f 115//301 116//301 173//301
f 173//302 116//302 159//302
f 160//303 119//303 151//303
f 151//304 119//304 161//304
f 40//305 120//305 169//305
f 125//306 155//306 166//306
f 171//307 126//307 156//307
f 138//308 146//308 145//308
f 147//309 140//309 172//309
f 173//310 159//310 174//310
f 118//311 123//311 177//311
f 177//312 123//312 169//312
f 123//313 40//313 169//313
f 157//314 158//314 156//314
f 158//315 145//315 4//315
f 145//316 146//316 163//316
f 163//317 146//317 179//317
f 146//318 149//318 179//318
f 149//319 147//319 180//319
f 164//320 167//320 6//320
f 6//321 157//321 3//321
f 3//322 157//322 167//322
f 165//323 160//323 181//323
f 160//324 151//324 176//324
f 177//325 169//325 182//325
f 153//326 5//326 152//326
f 5//327 124//327 178//327
f 178//328 124//328 170//328
f 170//329 124//329 154//329
f 158//330 4//330 156//330
f 179//331 149//331 180//331
f 187//332 3//332 167//332
f 168//333 115//333 191//333
f 115//334 173//334 191//334
f 159//335 175//335 174//335
f 175//336 165//336 181//336
f 160//337 176//337 181//337
f 120//338 162//338 169//338
f 152//339 5//339 184//339
f 184//340 5//340 178//340
f 155//341 126//341 192//341
f 126//342 171//342 193//342
f 188//343 4//343 194//343
f 4//344 145//344 194//344
f 145//345 163//345 185//345
f 185//346 163//346 179//346
f 189//347 179//347 180//347
f 150//348 164//348 186//348
f 6//349 3//349 164//349
f 3//350 187//350 164//350
f 167//351 168//351 187//351
f 187//352 168//352 191//352
f 169//353 162//353 183//353
f 183//354 162//354 2//354
f 162//355 152//355 184//355
f 154//356 166//356 192//356
f 166//357 155//357 192//357
f 192//358 126//358 193//358
f 194//359 145//359 185//359
f 172//360 150//360 186//360
f 164//361 187//361 190//361
f 174//362 175//362 198//362
f 184//363 178//363 200//363
f 156//364 4//364 188//364
f 179//365 189//365 196//365
f 189//366 180//366 202//366
f 147//367 172//367 180//367
f 180//368 172//368 186//368
f 173//369 174//369 198//369
f 198//370 175//370 199//370
f 199//371 181//371 176//371
f 169//372 183//372 182//372
f 182//373 2//373 1//373
f 2//374 162//374 184//374
f 200//375 178//375 170//375
f 171//376 156//376 188//376
f 185//377 179//377 196//377
f 186//378 164//378 197//378
f 190//379 187//379 203//379
f 187//380 191//380 203//380
f 199//381 175//381 181//381
f 205//382 199//382 176//382
f 183//383 2//383 182//383
f 182//384 1//384 208//384
f 170//385 154//385 201//385
f 154//386 192//386 201//386
f 171//387 188//387 207//387
f 164//388 190//388 197//388
f 203//389 191//389 204//389
f 176//390 177//390 205//390
f 205//391 177//391 182//391
f 195//392 2//392 206//392
f 206//393 2//393 184//393
f 200//394 170//394 201//394
f 193//395 171//395 207//395
f 194//396 185//396 196//396
f 191//397 173//397 204//397
f 204//398 173//398 210//398
f 210//399 173//399 198//399
f 192//400 193//400 201//400
f 201//401 193//401 207//401
f 197//402 180//402 186//402
f 197//403 190//403 203//403
f 210//404 198//404 199//404
f 206//405 184//405 211//405
f 184//406 200//406 211//406
f 207//407 188//407 194//407
f 196//408 189//408 209//408
f 202//409 180//409 197//409
f 205//410 182//410 208//410
f 200//411 201//411 213//411
f 194//412 196//412 209//412
f 209//413 189//413 202//413
f 197//414 203//414 204//414
f 210//415 199//415 205//415
f 205//416 208//416 212//416
f 201//417 207//417 213//417
f 213//418 207//418 194//418
f 202//419 197//419 214//419
f 213//420 194//420 209//420
f 209//421 202//421 214//421
f 197//422 204//422 214//422
f 205//423 212//423 210//423
f 215//424 211//424 213//424
f 211//425 200//425 213//425
f 209//426 214//426 218//426
f 214//427 204//427 216//427
f 216//428 204//428 217//428
f 217//429 204//429 210//429
f 213//430 209//430 220//430
f 215//431 213//431 220//431
f 209//432 218//432 220//432
f 214//433 216//433 218//433
f 219//434 215//434 220//434
usemtl マテリアル.002
f 221//435 236//435 235//435
f 222//436 238//436 244//436
f 221//437 235//437 250//437
f 221//438 250//438 256//438
f 221//439 256//439 245//439
f 222//440 244//440 265//440
f 223//441 241//441 271//441
f 224//442 253//442 277//442
f 225//443 259//443 283//443
f 226//444 262//444 289//444
f 222//445 265//445 272//445
f 223//446 271//446 278//446
f 224//447 277//447 284//447
f 225//448 283//448 290//448
f 226//449 289//449 266//449
f 227//450 295//450 310//450
f 228//451 298//451 316//451
f 229//452 301//452 319//452
f 230//453 304//453 322//453
f 231//454 307//454 311//454
f 313//455 320//455 232//455
f 312//456 323//456 313//456
f 311//457 324//457 312//457
f 313//458 323//458 320//458
f 323//459 321//459 320//459
f 312//460 324//460 323//460
f 324//461 325//461 323//461
f 323//462 325//462 321//462
f 325//463 322//463 321//463
f 311//464 307//464 324//464
f 307//465 306//465 324//465
f 324//466 306//466 325//466
f 306//467 305//467 325//467
f 325//468 305//468 322//468
f 305//469 230//469 322//469
f 320//470 317//470 232//470
f 321//471 326//471 320//471
f 322//472 327//472 321//472
f 320//473 326//473 317//473
f 326//474 318//474 317//474
f 321//475 327//475 326//475
f 327//476 328//476 326//476
f 326//477 328//477 318//477
f 328//478 319//478 318//478
f 322//479 304//479 327//479
f 304//480 303//480 327//480
f 327//481 303//481 328//481
f 303//482 302//482 328//482
f 328//483 302//483 319//483
f 302//484 229//484 319//484
f 317//485 314//485 232//485
f 318//486 329//486 317//486
f 319//487 330//487 318//487
f 317//488 329//488 314//488
f 329//489 315//489 314//489
f 318//490 330//490 329//490
f 330//491 331//491 329//491
f 329//492 331//492 315//492
f 331//493 316//493 315//493
f 319//494 301//494 330//494
f 301//495 300//495 330//495
f 330//496 300//496 331//496
f 300//497 299//497 331//497
f 331//498 299//498 316//498
f 299//499 228//499 316//499
f 314//500 308//500 232//500
f 315//501 332//501 314//501
f 316//502 333//502 315//502
f 314//503 332//503 308//503
f 332//504 309//504 308//504
f 315//505 333//505 332//505
f 333//506 334//506 332//506
f 332//507 334//507 309//507
f 334//508 310//508 309//508
f 316//509 298//509 333//509
f 298//510 297//510 333//510
f 333//511 297//511 334//511
f 297//512 296//512 334//512
f 334//513 296//513 310//513
f 296//514 227//514 310//514
f 308//515 313//515 232//515
f 309//516 335//516 308//516
f 310//517 336//517 309//517
f 308//518 335//518 313//518
f 335//519 312//519 313//519
f 309//520 336//520 335//520
f 336//521 337//521 335//521
f 335//522 337//522 312//522
f 337//523 311//523 312//523
f 310//524 295//524 336//524
f 295//525 294//525 336//525
f 336//526 294//526 337//526
f 294//527 293//527 337//527
f 337//528 293//528 311//528
f 293//529 231//529 311//529
f 268//530 307//530 231//530
f 267//531 338//531 268//531
f 266//532 339//532 267//532
f 268//533 338//533 307//533
f 338//534 306//534 307//534
f 267//535 339//535 338//535
f 339//536 340//536 338//536
f 338//537 340//537 306//537
f 340//538 305//538 306//538
f 266//539 289//539 339//539
f 289//540 288//540 339//540
f 339//541 288//541 340//541
f 288//542 287//542 340//542
f 340//543 287//543 305//543
f 287//544 230//544 305//544
f 292//545 304//545 230//545
f 291//546 341//546 292//546
f 290//547 342//547 291//547
f 292//548 341//548 304//548
f 341//549 303//549 304//549
f 291//550 342//550 341//550
f 342//551 343//551 341//551
f 341//552 343//552 303//552
f 343//553 302//553 303//553
f 290//554 283//554 342//554
f 283//555 282//555 342//555
f 342//556 282//556 343//556
f 282//557 281//557 343//557
f 343//558 281//558 302//558
f 281//559 229//559 302//559
f 286//560 301//560 229//560
f 285//561 344//561 286//561
f 284//562 345//562 285//562
f 286//563 344//563 301//563
f 344//564 300//564 301//564
f 285//565 345//565 344//565
f 345//566 346//566 344//566
f 344//567 346//567 300//567
f 346//568 299//568 300//568
f 284//569 277//569 345//569
f 277//570 276//570 345//570
f 345//571 276//571 346//571
f 276//572 275//572 346//572
f 346//573 275//573 299//573
f 275//574 228//574 299//574
f 280//575 298//575 228//575
f 279//576 347//576 280//576
f 278//577 348//577 279//577
f 280//578 347//578 298//578
f 347//579 297//579 298//579
f 279//580 348//580 347//580
f 348//581 349//581 347//581
f 347//582 349//582 297//582
f 349//583 296//583 297//583
f 278//584 271//584 348//584
f 271//585 270//585 348//585
f 348//586 270//586 349//586
f 270//587 269//587 349//587
f 349//588 269//588 296//588
f 269//589 227//589 296//589
f 274//590 295//590 227//590
f 273//591 350//591 274//591
f 272//592 351//592 273//592
f 274//593 350//593 295//593
f 350//594 294//594 295//594
f 273//595 351//595 350//595
f 351//596 352//596 350//596
f 350//597 352//597 294//597
f 352//598 293//598 294//598
f 272//599 265//599 351//599
f 265//600 264//600 351//600
f 351//601 264//601 352//601
f 264//602 263//602 352//602
f 352//603 263//603 293//603
f 263//604 231//604 293//604
f 287//605 292//605 230//605
f 288//606 353//606 287//606
f 289//607 354//607 288//607
f 287//608 353//608 292//608
f 353//609 291//609 292//609
f 288//610 354//610 353//610
f 354//611 355//611 353//611
f 353//612 355//612 291//612
f 355//613 290//613 291//613
f 289//614 262//614 354//614
f 262//615 261//615 354//615
f 354//616 261//616 355//616
f 261//617 260//617 355//617
f 355//618 260//618 290//618
f 260//619 225//619 290//619
f 281//620 286//620 229//620
f 282//621 356//621 281//621
f 283//622 357//622 282//622
f 281//623 356//623 286//623
f 356//624 285//624 286//624
f 282//625 357//625 356//625
f 357//626 358//626 356//626
f 356//627 358//627 285//627
f 358//628 284//628 285//628
f 283//629 259//629 357//629
f 259//630 258//630 357//630
f 357//631 258//631 358//631
f 258//632 257//632 358//632
f 358//633 257//633 284//633
f 257//634 224//634 284//634
f 275//635 280//635 228//635
f 276//636 359//636 275//636
f 277//637 360//637 276//637
f 275//638 359//638 280//638
f 359//639 279//639 280//639
f 276//640 360//640 359//640
f 360//641 361//641 359//641
f 359//642 361//642 279//642
f 361//643 278//643 279//643
f 277//644 253//644 360//644
f 253//645 252//645 360//645
f 360//646 252//646 361//646
f 252//647 251//647 361//647
f 361//648 251//648 278//648
f 251//649 223//649 278//649
f 269//650 274//650 227//650
f 270//651 362//651 269//651
f 271//652 363//652 270//652
f 269//653 362//653 274//653
f 362//654 273//654 274//654
f 270//655 363//655 362//655
f 363//656 364//656 362//656
f 362//657 364//657 273//657
f 364//658 272//658 273//658
f 271//659 241//659 363//659
f 241//660 240//660 363//660
f 363//661 240//661 364//661
f 240//662 239//662 364//662
f 364//663 239//663 272//663
f 239//664 222//664 272//664
f 263//665 268//665 231//665
f 264//666 365//666 263//666
f 265//667 366//667 264//667
f 263//668 365//668 268//668
f 365//669 267//669 268//669
f 264//670 366//670 365//670
f 366//671 367//671 365//671
f 365//672 367//672 267//672
f 367//673 266//673 267//673
f 265//674 244//674 366//674
f 244//675 243//675 366//675
f 366//676 243//676 367//676
f 243//677 242//677 367//677
f 367//678 242//678 266//678
f 242//679 226//679 266//679
f 247//680 262//680 226//680
f 246//681 368//681 247//681
f 245//682 369//682 246//682
f 247//683 368//683 262//683
f 368//684 261//684 262//684
f 246//685 369//685 368//685
f 369//686 370//686 368//686
f 368//687 370//687 261//687
f 370//688 260//688 261//688
f 245//689 256//689 369//689
f 256//690 255//690 369//690
f 369//691 255//691 370//691
f 255//692 254//692 370//692
f 370//693 254//693 260//693
f 254//694 225//694 260//694
f 254//695 259//695 225//695
f 255//696 371//696 254//696
f 256//697 372//697 255//697
f 254//698 371//698 259//698
f 371//699 258//699 259//699
f 255//700 372//700 371//700
f 372//701 373//701 371//701
f 371//702 373//702 258//702
f 373//703 257//703 258//703
f 256//704 250//704 372//704
f 250//705 249//705 372//705
f 372//706 249//706 373//706
f 249//707 248//707 373//707
f 373//708 248//708 257//708
f 248//709 224//709 257//709
f 248//710 253//710 224//710
f 249//711 374//711 248//711
f 250//712 375//712 249//712
f 248//713 374//713 253//713
f 374//714 252//714 253//714
f 249//715 375//715 374//715
f 375//716 376//716 374//716
f 374//717 376//717 252//717
f 376//718 251//718 252//718
f 250//719 235//719 375//719
f 235//720 234//720 375//720
f 375//721 234//721 376//721
f 234//722 233//722 376//722
f 376//723 233//723 251//723
f 233//724 223//724 251//724
f 242//725 247//725 226//725
f 243//726 377//726 242//726
f 244//727 378//727 243//727
f 242//728 377//728 247//728
f 377//729 246//729 247//729
f 243//730 378//730 377//730
f 378//731 379//731 377//731
f 377//732 379//732 246//732
f 379//733 245//733 246//733
f 244//734 238//734 378//734
f 238//735 237//735 378//735
f 378//736 237//736 379//736
f 237//737 236//737 379//737
f 379//738 236//738 245//738
f 236//739 221//739 245//739
f 233//740 241//740 223//740
f 234//741 380//741 233//741
f 235//742 381//742 234//742
f 233//743 380//743 241//743
f 380//744 240//744 241//744
f 234//745 381//745 380//745
f 381//746 382//746 380//746
f 380//747 382//747 240//747
f 382//748 239//748 240//748
f 235//749 236//749 381//749
f 236//750 237//750 381//750
f 381//751 237//751 382//751
f 237//752 238//752 382//752
f 382//753 238//753 239//753
f 238//754 222//754 239//754
